<svg width="3159" height="595" viewBox="0 0 3159 595" fill="none" xmlns="http://www.w3.org/2000/svg">
<path d="M297.5 0C133.18 0 0 133.18 0 297.5C0 461.82 133.18 595 297.5 595C461.82 595 595 461.82 595 297.5C595 133.18 461.783 0 297.5 0ZM496.183 368.587C494.534 370.236 494.684 370.086 492.998 371.772L359.668 297.088L98.667 499.556L95.3694 496.258L297.837 235.257L223.153 101.927C224.802 100.278 224.652 100.428 226.338 98.742L359.668 173.426L496.296 95.4443L499.481 98.6295L421.499 235.257L496.183 368.587Z" fill="#1B1919"/>
<path d="M1141.47 143.1L836.941 460.003L839.491 465.139H1172.21V397.657H1016.59L1214.69 191.387V465.139H1300.92V207.245C1300.92 123.83 1199.28 82.9662 1141.51 143.1H1141.47Z" fill="#1B1919"/>
<path d="M3067.83 465.063H2803.33V389.333H3087.32L2848.43 281.55L2845.1 279.45C2809.78 257.481 2792.01 226.852 2803.6 183.139C2814.84 140.662 2849.78 120.043 2890.53 120.043H3148.5V195.885H2882.77L3102.95 298.833C3145.05 319.34 3167.55 352.781 3155.93 398.256C3145.05 441.22 3110.86 464.951 3068.01 464.951L3067.9 465.063H3067.83Z" fill="#1B1919"/>
<path d="M2331.11 120.16H2244.65V465.068H2331.11V120.16Z" fill="#1B1919"/>
<path d="M2652.65 120.043H2528.68L2373.8 245.672C2360.72 257.369 2352.7 274.089 2351.83 291.71C2350.97 309.93 2357.76 327.887 2370.47 341.046L2527.93 465.213H2654L2447.28 294.784L2652.65 120.043Z" fill="#1B1919"/>
<path d="M2765.31 120.16H2678.86V465.18H2765.31V120.16Z" fill="#1B1919"/>
<path d="M1433.63 465.18H1347.18V248.413C1347.18 177.595 1404.61 120.16 1475.43 120.16H1599.26V195.89H1477.31C1453.2 195.89 1433.63 215.46 1433.63 239.566V465.18Z" fill="#1B1919"/>
<path d="M1697.82 465.18H1611.37V248.413C1611.37 177.595 1668.81 120.16 1739.63 120.16H1863.46V195.89H1741.5C1717.39 195.89 1697.82 215.46 1697.82 239.566V465.18Z" fill="#1B1919"/>
<path d="M2037.26 143.1L1732.73 460.003L1735.28 465.139H2068V397.657H1912.38L2110.48 191.387V465.139H2196.7V207.245C2196.7 123.83 2095.07 82.9662 2037.3 143.1H2037.26Z" fill="#1B1919"/>
</svg>
