<svg width="3159" height="595" viewBox="0 0 3159 595" fill="none" xmlns="http://www.w3.org/2000/svg">
<path d="M297.5 0C133.18 0 0 133.18 0 297.5C0 461.82 133.18 595 297.5 595C461.82 595 595 461.82 595 297.5C595 133.18 461.783 0 297.5 0ZM496.183 368.587C494.534 370.236 494.684 370.086 492.998 371.772L359.668 297.088L98.667 499.556L95.3694 496.258L297.837 235.257L223.153 101.927C224.802 100.278 224.652 100.428 226.338 98.742L359.668 173.426L496.296 95.4443L499.481 98.6295L421.499 235.257L496.183 368.587Z" fill="white"/>
<path d="M1141.47 142.834L836.941 459.737L839.491 464.873H1172.21V397.391H1016.59L1214.69 191.122V464.873H1300.92V206.98C1300.92 123.565 1199.28 82.7005 1141.51 142.834H1141.47Z" fill="white"/>
<path d="M3067.83 464.797H2803.33V389.068H3087.32L2848.43 281.284L2845.1 279.185C2809.78 257.216 2792.01 226.586 2803.6 182.873C2814.84 140.397 2849.78 119.777 2890.53 119.777H3148.5V195.62H2882.77L3102.95 298.567C3145.05 319.074 3167.55 352.515 3155.93 397.99C3145.05 440.954 3110.86 464.685 3068.01 464.685L3067.9 464.797H3067.83Z" fill="white"/>
<path d="M2331.11 119.895H2244.65V464.802H2331.11V119.895Z" fill="white"/>
<path d="M2652.65 119.777H2528.68L2373.8 245.406C2360.72 257.103 2352.7 273.824 2351.83 291.444C2350.97 309.664 2357.76 327.622 2370.47 340.781L2527.93 464.947H2654L2447.28 294.518L2652.65 119.777Z" fill="white"/>
<path d="M2765.31 119.895H2678.86V464.915H2765.31V119.895Z" fill="white"/>
<path d="M1433.63 464.915H1347.18V248.148C1347.18 177.329 1404.61 119.895 1475.43 119.895H1599.26V195.624H1477.31C1453.2 195.624 1433.63 215.194 1433.63 239.3V464.915Z" fill="white"/>
<path d="M1697.82 464.915H1611.37V248.148C1611.37 177.329 1668.81 119.895 1739.63 119.895H1863.46V195.624H1741.5C1717.39 195.624 1697.82 215.194 1697.82 239.3V464.915Z" fill="white"/>
<path d="M2037.26 142.834L1732.73 459.737L1735.28 464.873H2068V397.391H1912.38L2110.48 191.122V464.873H2196.7V206.98C2196.7 123.565 2095.07 82.7005 2037.3 142.834H2037.26Z" fill="white"/>
</svg>
