<svg fill="none" width="245.927" height="33.348" xmlns="http://www.w3.org/2000/svg">
    <path d="M36.155 24.816a7.606 7.606 0 0 1-3.047-3.254c-.702-1.405-1.07-3.017-1.07-4.85 0-1.85.368-3.476 1.086-4.88a7.698 7.698 0 0 1 3.06-3.237c1.326-.766 2.872-1.15 4.643-1.15 1.388 0 2.616.271 3.716.798a6.815 6.815 0 0 1 2.68 2.248c.685.973 1.116 2.122 1.275 3.413l-3.524.192c-.256-1.196-.766-2.12-1.531-2.775-.766-.654-1.707-.99-2.84-.99-1.036 0-1.93.272-2.68.814-.75.543-1.322 1.292-1.721 2.25-.4.956-.59 2.072-.59 3.316 0 1.244.19 2.345.59 3.318.399.957.973 1.706 1.722 2.248.75.527 1.643.798 2.68.798 1.132 0 2.073-.32 2.823-.973.75-.654 1.26-1.579 1.515-2.79l3.524.174c-.175 1.324-.606 2.472-1.291 3.445a6.686 6.686 0 0 1-2.68 2.25c-1.1.525-2.328.781-3.7.781-1.754 0-3.317-.383-4.64-1.149zm14.72-17.242h3.493v7.511h7.75V7.574h3.51v18.245h-3.51v-7.735h-7.75v7.736h-3.493zM80.38 21.511h-7.91l-1.404 4.306h-3.652l6.682-18.23h4.848l6.667 18.23h-3.78zm-6.97-2.79h6.045l-2.84-8.438h-.398zm20.206-8.15V22.82h3.285v2.982h-10.08V22.82h3.286V10.571h-3.285V7.59h10.08v2.982zm5.948-2.983h4.035l8.644 12.95h.383V7.59h3.46v18.23h-4.05l-8.66-12.967h-.367v12.966h-3.445V7.588zm22.568 17.64c-1.1-.495-1.962-1.18-2.584-2.074-.622-.893-.94-1.93-.957-3.11l3.43-.095c.063 1.02.446 1.818 1.147 2.376.702.574 1.643.861 2.807.861 1.069 0 1.93-.223 2.552-.654.622-.43.94-1.052.94-1.834 0-.606-.206-1.1-.605-1.45-.4-.367-.91-.638-1.531-.813-.622-.176-1.5-.383-2.616-.59-1.355-.272-2.44-.59-3.253-.958-.814-.366-1.42-.86-1.85-1.5-.415-.637-.622-1.466-.622-2.503 0-1.1.303-2.057.909-2.886.606-.83 1.42-1.468 2.456-1.914 1.037-.447 2.185-.67 3.445-.67 1.308 0 2.472.223 3.493.686 1.02.462 1.834 1.1 2.424 1.93.59.829.893 1.802.94 2.902l-3.412.192c-.08-.925-.43-1.643-1.037-2.153-.606-.51-1.403-.766-2.392-.766-1.005 0-1.802.207-2.376.622-.59.415-.878 1.005-.878 1.77 0 .59.176 1.053.527 1.404.35.335.813.59 1.37.75.559.159 1.34.35 2.36.542l.32.063c1.34.256 2.44.575 3.27.94.829.368 1.483.863 1.93 1.485.446.622.67 1.45.67 2.456 0 1.148-.303 2.153-.925 3.014-.622.86-1.468 1.53-2.536 1.994-1.07.462-2.28.7-3.62.7-1.436.016-2.696-.223-3.796-.717zm13.3-17.64h12.026v2.982h-8.532v4.641h6.969v2.791h-6.97v4.817h8.836v2.982h-12.328zm17.848 17.226a7.606 7.606 0 0 1-3.046-3.254c-.702-1.404-1.07-3.015-1.07-4.849 0-1.85.368-3.476 1.086-4.88a7.698 7.698 0 0 1 3.062-3.237c1.324-.766 2.87-1.15 4.64-1.15 1.389 0 2.617.271 3.717.798a6.805 6.805 0 0 1 2.679 2.248c.686.973 1.117 2.122 1.276 3.413l-3.524.192c-.256-1.196-.766-2.12-1.531-2.775-.766-.654-1.707-.99-2.84-.99-1.036 0-1.93.272-2.68.814-.748.543-1.322 1.292-1.721 2.25-.4.956-.59 2.072-.59 3.316 0 1.244.19 2.345.59 3.318.399.957.973 1.706 1.722 2.248.75.527 1.643.798 2.68.798 1.132 0 2.073-.32 2.823-.973.749-.654 1.26-1.579 1.515-2.79l3.524.174c-.175 1.324-.606 2.472-1.291 3.445a6.685 6.685 0 0 1-2.68 2.25c-1.1.525-2.328.781-3.7.781-1.754 0-3.317-.383-4.641-1.149zm16.443-.847c-1.244-1.34-1.866-3.285-1.866-5.87V7.59h3.524v10.702c0 1.594.303 2.774.925 3.54.607.765 1.579 1.164 2.919 1.164s2.313-.383 2.935-1.164c.622-.766.925-1.946.925-3.54V7.588h3.524v10.51c0 2.585-.622 4.53-1.866 5.87-1.244 1.34-3.078 2.01-5.502 2.01-2.44-.017-4.274-.67-5.518-2.01zm24.065-4.56h-4.593v6.41h-3.492V7.588h7.703c1.292 0 2.424.24 3.413.734.988.495 1.754 1.18 2.296 2.058.542.893.814 1.93.814 3.11 0 .861-.192 1.642-.56 2.344-.365.702-.924 1.276-1.641 1.723-.718.446-1.58.733-2.6.86v.4h2.2l3.589 6.985h-3.86zm-.685-2.888c.988 0 1.786-.27 2.36-.813.59-.543.877-1.276.877-2.217 0-.622-.127-1.164-.4-1.61a2.674 2.674 0 0 0-1.131-1.054c-.494-.239-1.052-.366-1.706-.366h-3.924v6.06zm15.868-5.949v12.25h3.286v2.981h-10.08V22.82h3.286V10.571h-3.286V7.59h10.08v2.982zm10.27 0h-5.421V7.59h14.369v2.982h-5.406v15.231h-3.525v-15.23h-.016zm20.002 9.283v5.964h-3.508v-5.917l-6.683-12.328h4.115l4.099 8.517h.382l4.37-8.517h3.908l-6.683 12.28zM20.016 13.78l.112.063.095-.064 2.44-1.42.303-.175-.302-.191-7.002-4.354-.048-.032h-1.547l-.032.032-6.618 3.811-.112.063v2.728l.112.063 10.78 6.204-3.316 1.93-5.216-3.142-.111-.063-.112.063-2.536 1.627-.287.175.287.176 7.13 4.418.047.032h1.563l.048-.032 6.587-3.812.111-.064v-2.71l-.111-.064-10.782-6.188 3.35-1.93 5.167 2.855z" fill="currentColor"/>
    <path d="m20.223 27.016-.112-.063-.111.063-5.168 2.999-11.578-6.667V10l11.578-6.682 5.2 2.823.095.048.096-.048 3.014-1.611.351-.175-.35-.192L15.629.016 15.598 0h-1.531l-.032.032L.813 7.655l-.047.032-.032.048-.718 1.228L0 9.011v15.358l.032.048.718 1.228.032.048.047.032 13.206 7.591.048.032h1.546l.047-.032 7.4-4.306.32-.175-.32-.176-2.854-1.643z" fill="currentColor"/>
</svg>
