<svg xml:space="preserve" viewBox="362.18 374.27 1003.633 95.397" width="1003.633" height="95.397" xmlns="http://www.w3.org/2000/svg"><defs><filter style="color-interpolation-filters:sRGB" id="a" x="0" y="0" width="1" height="1"><feColorMatrix values="1 0 0 0 0 0 1 0 0 0 0 0 1 0 0 -0.21 -0.72 -0.07 2 0" result="color2"/></filter></defs><path style="font-style:normal;font-weight:800;font-size:72px;line-height:1;font-family:'Montserrat ExtraBold Alt1';font-variant-ligatures:none;text-align:center;text-anchor:middle;fill:#00000c;stroke:#00000c;filter:url(#a)" d="M279.406-50.4h-39.96v11.016h39.96zm0 19.512h-39.96v10.656h39.96zm-39.96 19.872V0h39.96v-11.016zM287.821 0h13.968v-8.496L287.821-26.28zm33.984-50.4v9.144l13.968 16.848V-50.4Zm0 26.856L299.557-50.4h-11.736v6.696l13.968 16.848L324.037 0h11.736v-5.832l-13.968-17.784zM345.9-50.4V0h14.255v-50.4zM404.136-26.28v13.824c-2.448 1.152-4.968 1.656-7.704 1.656-2.808 0-5.256-.576-7.416-1.8-2.16-1.224-3.888-2.952-5.04-5.112-1.224-2.16-1.8-4.68-1.8-7.488 0-4.32 1.296-7.848 3.96-10.44 2.592-2.592 6.12-3.96 10.44-3.96 4.752 0 8.784 1.872 12.24 5.616l9.072-8.208c-2.52-2.952-5.616-5.256-9.36-6.84-3.744-1.584-7.992-2.376-12.672-2.376-5.4 0-10.224 1.152-14.472 3.384-4.32 2.232-7.632 5.328-10.008 9.288-2.448 4.032-3.6 8.496-3.6 13.536 0 5.04 1.152 9.576 3.6 13.536 2.376 4.032 5.688 7.128 9.936 9.36 4.176 2.232 8.928 3.312 14.256 3.312 3.744 0 7.488-.504 11.232-1.656 3.744-1.08 7.056-2.664 9.936-4.752v-20.88zM484.238-31.176 471.206-7.848 471.278 0h13.104zM425.774 0h13.176v-6.984l-13.176-23.544zm46.728-50.4-17.28 29.088L437.51-50.4h-11.736l13.176 24.408 12.888 21.024h6.336l12.96-21.744L483.878-50.4zM524.567-50.4h-14.04L488.28 0h14.544l3.96-9.792 4.176-10.512 6.48-16.128 6.48 16.128 4.176 10.512L532.055 0h14.832z" fill="#fffff3" transform="matrix(1.82 0 0 1.82 -73.612 467.833)"/><path style="font-style:normal;font-weight:800;font-size:72px;line-height:1;font-family:'Montserrat ExtraBold Alt1';font-variant-ligatures:none;text-align:center;text-anchor:middle;fill:#969282;stroke:#969282;filter:url(#a)" d="M620.34-38.52c-2.376-3.744-5.688-6.696-9.936-8.784-4.32-2.016-9.216-3.096-14.688-3.096h-23.832v11.376h23.256c4.32 0 7.776 1.224 10.368 3.672 2.592 2.52 3.96 5.904 3.96 10.152 0 4.32-1.368 7.704-3.96 10.152-2.592 2.448-6.048 3.672-10.368 3.672h-9v-13.392h-14.256V0h23.832c5.472 0 10.368-1.008 14.688-3.096 4.248-2.016 7.56-4.968 9.936-8.784 2.304-3.744 3.528-8.208 3.528-13.32 0-5.04-1.224-9.504-3.528-13.32zM660.833-50.4h-14.04L624.545 0h14.544l3.96-9.792 4.176-10.512 6.48-16.128 6.48 16.128 4.176 10.512L668.321 0h14.832zM722.764-15.84c3.096-1.512 5.544-3.6 7.272-6.336 1.728-2.736 2.592-5.904 2.592-9.576 0-3.744-.936-7.056-2.736-9.864-1.872-2.808-4.464-4.968-7.776-6.48-3.384-1.512-7.344-2.304-11.88-2.304h-23.04v11.232h22.176c2.88 0 5.112.648 6.624 1.944 1.44 1.296 2.232 3.168 2.232 5.472 0 2.376-.792 4.176-2.232 5.472-1.512 1.296-3.744 1.872-6.624 1.872h-22.176V0h14.256v-13.392h7.776L718.372 0h15.264zM754.605-50.4h-14.112v21.456l14.112-15.336zm14.616 22.32 20.592-22.32h-15.696l-19.512 20.952-14.112 15.192V0h14.112v-12.6l5.328-5.688L774.333 0h16.56z" fill="#696d7d" transform="matrix(1.82 0 0 1.82 -73.612 467.833)"/></svg>