<?xml version="1.0" encoding="UTF-8" standalone="no"?>
<svg
   viewBox="0 0 1226 104"
   fill="#2C2C2C"
   class="logo_regular"
   version="1.1"
   id="svg1"
   sodipodi:docname="sherlock.svg"
   inkscape:version="1.3.2 (091e20e, 2023-11-25)"
   xmlns:inkscape="http://www.inkscape.org/namespaces/inkscape"
   xmlns:sodipodi="http://sodipodi.sourceforge.net/DTD/sodipodi-0.dtd"
   xmlns="http://www.w3.org/2000/svg"
   xmlns:svg="http://www.w3.org/2000/svg">
  <defs
     id="defs1" />
  <sodipodi:namedview
     id="namedview1"
     pagecolor="#505050"
     bordercolor="#eeeeee"
     borderopacity="1"
     inkscape:showpageshadow="0"
     inkscape:pageopacity="0"
     inkscape:pagecheckerboard="0"
     inkscape:deskcolor="#d1d1d1"
     inkscape:zoom="0.43321517"
     inkscape:cx="514.75575"
     inkscape:cy="-12.69577"
     inkscape:window-width="1320"
     inkscape:window-height="652"
     inkscape:window-x="0"
     inkscape:window-y="25"
     inkscape:window-maximized="0"
     inkscape:current-layer="svg1" />
  <path
     d="M120.954 7.738 58.318 56.103V35.785a3.864 3.864 0 0 0-3.864-3.864H4.364A3.864 3.864 0 0 0 .5 35.785v43.533c0 15.477 14.454 24.183 29.873 24.666 10.278.323 19.594-4.352 27.945-14.025L127.7 16.444c5.782-5.804 9.636-8.706 16.382-8.706h17.345c2.891 0 4.336-1.934 4.336-3.869 0-1.934-1.445-3.869-4.336-3.869h-22.164c-5.781 0-11.884 2.58-18.309 7.738ZM210.192 99.317c7.523 2.818 15.047 4.228 22.57 4.228 7.247 0 13.801-1.259 19.663-3.778 5.861-2.518 10.5-6.099 13.916-10.742 3.415-4.644 5.123-9.9 5.123-15.768 0-3.142-.531-6.088-1.592-8.837-1.062-2.75-2.389-5.106-3.981-7.07-1.593-1.963-3.566-3.788-5.92-5.475-2.354-1.687-4.569-3.05-6.646-4.09-2.077-1.039-4.408-2.01-6.993-2.91-2.585-.901-4.616-1.548-6.093-1.94a105.511 105.511 0 0 0-4.777-1.145c-2.492-.508-4.696-1.062-6.612-1.663a41.614 41.614 0 0 1-5.608-2.218c-1.823-.878-3.219-1.94-4.188-3.188-.97-1.247-1.454-2.634-1.454-4.158 0-2.588 1.407-4.702 4.223-6.342 2.816-1.64 6.416-2.46 10.801-2.46 4.523 0 9.023.854 13.5 2.564s8.147 3.927 11.009 6.653l10.246-16.772c-3.785-3.604-8.689-6.515-14.712-8.733-6.024-2.218-12.658-3.327-19.905-3.327-11.308 0-20.424 2.68-27.348 8.04-6.923 5.36-10.385 12.43-10.385 21.208 0 15.34 11.401 25.76 34.202 31.259a245.5 245.5 0 0 1 5.158 1.282c1.131.3 2.619.739 4.466 1.317 1.846.577 3.242 1.132 4.188 1.663a33 33 0 0 1 2.977 1.906c1.039.74 1.777 1.56 2.216 2.46.438.901.658 1.906.658 3.015 0 2.819-1.581 5.13-4.743 6.931-3.162 1.802-7.004 2.703-11.527 2.703-5.124 0-10.397-1.143-15.821-3.43-5.423-2.288-10.165-5.303-14.227-9.045l-11.355 16.703c5.124 4.62 11.447 8.34 18.971 11.159ZM414.555 3.879h-21.947v38.327h-39.256V3.88h-22.016v97.933h22.016V62.93h39.256v38.882h21.947V3.879ZM544.765 81.089h-45.072v-18.16h39.672V42.207h-39.672V24.602h44.38V3.879h-66.396v97.933h67.088V81.089ZM640.4 71.49l20.147 30.322h26.378l-22.847-32.748c6.139-2.402 11.031-6.18 14.677-11.332 3.647-5.152 5.47-11.69 5.47-21.07s-3.231-17.189-9.693-23.427C668.07 6.998 659.97 3.88 650.231 3.88H607.79v97.933h22.017V71.49H640.4Zm-10.593-19.198v-27.69h19.939c3.416 0 6.254 1.178 8.516 3.535 2.262 2.356 3.687 5.542 3.687 10.273 0 4.732-1.437 8.048-3.722 10.382-2.284 2.333-5.111 3.5-8.481 3.5h-19.939ZM809.549 81.089h-41.724V3.879h-22.017v97.933h63.741V81.089ZM900.614 103.545c7.246 0 14.054-1.294 20.424-3.882 6.415-2.633 11.92-6.191 16.512-10.673 4.593-4.482 8.216-9.854 10.87-16.114 2.654-6.261 3.981-12.95 3.981-20.065 0-9.473-2.262-18.078-6.785-25.818-4.523-7.74-10.743-13.815-18.659-18.228-7.916-4.413-16.697-6.62-26.343-6.62-7.247 0-14.078 1.295-20.494 3.882-6.415 2.588-11.908 6.122-16.478 10.604-4.569 4.482-8.169 9.854-10.8 16.115-2.631 6.26-3.946 12.949-3.946 20.065 0 7.115 1.315 13.804 3.946 20.065 2.631 6.26 6.231 11.632 10.8 16.114 4.57 4.482 10.063 8.028 16.478 10.639 6.416 2.61 13.247 3.916 20.494 3.916Zm0-21.209c-8.308 0-15.255-2.795-20.84-8.386-5.585-5.637-8.377-12.684-8.377-21.14 0-8.455 2.792-15.49 8.377-21.104 5.585-5.614 12.532-8.42 20.84-8.42s15.254 2.806 20.839 8.42c5.585 5.614 8.378 12.649 8.378 21.105 0 8.455-2.793 15.49-8.378 21.104-5.585 5.614-12.531 8.421-20.839 8.421ZM1023.12 99.629c6.42 2.61 13.25 3.916 20.49 3.916 9.1 0 17.42-1.953 24.96-5.857 7.55-3.904 13.65-9.299 18.32-16.184l-19.04-11.782c-2.68 3.928-6.13 7.012-10.35 9.253-4.23 2.24-8.85 3.361-13.89 3.361-8.3 0-15.25-2.807-20.84-8.42-5.58-5.615-8.37-12.65-8.37-21.105 0-8.456 2.79-15.49 8.37-21.105 5.59-5.614 12.54-8.42 20.84-8.42 4.99 0 9.6 1.131 13.85 3.395 4.25 2.264 7.71 5.36 10.39 9.288l19.04-11.783c-4.67-6.885-10.77-12.28-18.32-16.183-7.54-3.905-15.86-5.857-24.96-5.857-7.24 0-14.07 1.294-20.49 3.881-6.41 2.588-11.91 6.122-16.48 10.604-4.57 4.482-8.167 9.854-10.797 16.115-2.631 6.26-3.947 12.949-3.947 20.065 0 7.115 1.316 13.804 3.947 20.065 2.63 6.26 6.227 11.632 10.797 16.114 4.57 4.482 10.07 8.028 16.48 10.639ZM1169.2 66.88l29.64 34.932h28.66l-44.1-50.803 41.95-47.13h-27.9l-36.41 42.278V3.879h-22.02v97.933h22.02V76.098l8.16-9.218Z"
     id="path1"
     style="fill:#000000;fill-opacity:1" />
</svg>
