<svg width="595" height="595" viewBox="0 0 595 595" fill="none" xmlns="http://www.w3.org/2000/svg">
<path d="M297.5 0C133.18 0 0 133.18 0 297.5C0 461.82 133.18 595 297.5 595C461.82 595 595 461.82 595 297.5C595 133.18 461.783 0 297.5 0ZM496.183 368.587C494.534 370.236 494.684 370.086 492.998 371.772L359.668 297.088L98.667 499.556L95.3694 496.258L297.837 235.257L223.153 101.927C224.802 100.278 224.652 100.428 226.338 98.742L359.668 173.426L496.296 95.4443L499.481 98.6295L421.499 235.257L496.183 368.587Z" fill="#1B1919"/>
</svg>
